<svg xmlns="http://www.w3.org/2000/svg" width="1200" height="630" viewBox="0 0 1200 630" role="img" aria-labelledby="title desc">
  <title id="title">F1 Data Dashboard</title>
  <desc id="desc">Live timing, telemetry and race analysis</desc>
  <defs>
    <linearGradient id="background" x1="0" y1="0" x2="1200" y2="630" gradientUnits="userSpaceOnUse">
      <stop stop-color="#171b24"/>
      <stop offset="0.62" stop-color="#0b0d12"/>
      <stop offset="1" stop-color="#050608"/>
    </linearGradient>
    <linearGradient id="accent" x1="91" y1="107" x2="905" y2="562" gradientUnits="userSpaceOnUse">
      <stop stop-color="#ff1744"/>
      <stop offset="1" stop-color="#e10600"/>
    </linearGradient>
    <filter id="glow" x="-30%" y="-30%" width="160%" height="160%">
      <feGaussianBlur stdDeviation="18"/>
    </filter>
  </defs>
  <rect width="1200" height="630" fill="url(#background)"/>
  <circle cx="1070" cy="80" r="310" fill="#e10600" opacity=".11" filter="url(#glow)"/>
  <path d="M0 530c258-134 425-142 672-61 184 60 334 58 528-13v174H0Z" fill="#e10600" opacity=".08"/>
  <g transform="translate(82 88)">
    <rect width="116" height="116" rx="28" fill="#11151d" stroke="#343946" stroke-width="2"/>
    <path d="M24 75a40 40 0 0 1 68 0" fill="none" stroke="#343946" stroke-width="10" stroke-linecap="round"/>
    <path d="M24 75a40 40 0 0 1 56-15" fill="none" stroke="url(#accent)" stroke-width="10" stroke-linecap="round"/>
    <path d="m59 72 24-31-16 36Z" fill="#f6f7fb"/>
    <circle cx="58" cy="76" r="9" fill="#f6f7fb"/>
    <circle cx="58" cy="76" r="4" fill="#e10600"/>
    <path d="M30 92h56" stroke="#f6f7fb" stroke-width="7" stroke-linecap="round"/>
  </g>
  <text x="82" y="285" fill="#f6f7fb" font-family="Inter, Arial, sans-serif" font-size="74" font-weight="800" letter-spacing="-2">F1 DATA DASHBOARD</text>
  <rect x="82" y="323" width="126" height="8" rx="4" fill="url(#accent)"/>
  <text x="82" y="398" fill="#c8cbd2" font-family="Inter, Arial, sans-serif" font-size="34" font-weight="500">Live timing · Telemetry · Race analysis</text>
  <g transform="translate(82 475)" font-family="Inter, Arial, sans-serif" font-size="19" font-weight="600" fill="#f6f7fb">
    <rect width="162" height="54" rx="27" fill="#1c2029" stroke="#353a46"/>
    <circle cx="29" cy="27" r="6" fill="#ff1744"/>
    <text x="48" y="34">LIVE DATA</text>
    <rect x="178" width="166" height="54" rx="27" fill="#1c2029" stroke="#353a46"/>
    <text x="205" y="34">RACE REPLAY</text>
    <rect x="360" width="184" height="54" rx="27" fill="#1c2029" stroke="#353a46"/>
    <text x="387" y="34">LAP COMPARE</text>
  </g>
  <text x="1118" y="561" text-anchor="end" fill="#858b98" font-family="Inter, Arial, sans-serif" font-size="20">f1.nagoya-jp.me</text>
</svg>
